HIERARCHY
ROOT Hips
{
 OFFSET 0.000000 0.000000 0.000000
 CHANNELS 6 Xposition Yposition Zposition Yrotation Xrotation Zrotation
 JOINT Chest
 {
  OFFSET 0.000000 10.354800 0.006500
  CHANNELS 3 Yrotation Xrotation Zrotation
  JOINT Chest2
  {
   OFFSET 0.000000 10.435800 -0.013200
   CHANNELS 3 Yrotation Xrotation Zrotation
   JOINT Chest3
   {
    OFFSET 0.000000 10.393700 0.000000
    CHANNELS 3 Yrotation Xrotation Zrotation
    JOINT Chest4
    {
     OFFSET 0.000000 10.383100 0.000000
     CHANNELS 3 Yrotation Xrotation Zrotation
     JOINT Neck
     {
      OFFSET 0.000000 15.694000 0.000000
      CHANNELS 3 Yrotation Xrotation Zrotation
      JOINT Head
      {
       OFFSET 0.000000 9.711000 -0.028000
       CHANNELS 3 Yrotation Xrotation Zrotation
       End Site
       {
        OFFSET 0.000000 18.578700 -0.014800
       }
      }
     }
     JOINT RightCollar
     {
      OFFSET -3.157200 10.367500 0.000000
      CHANNELS 3 Yrotation Xrotation Zrotation
      JOINT RightShoulder
      {
       OFFSET -14.482500 0.000000 0.000000
       CHANNELS 3 Yrotation Xrotation Zrotation
       JOINT RightElbow
       {
        OFFSET 0.000000 -31.707800 0.000000
        CHANNELS 3 Yrotation Xrotation Zrotation
        JOINT RightWrist
        {
         OFFSET 0.000000 -25.659300 0.000000
         CHANNELS 3 Yrotation Xrotation Zrotation
         End Site
         {
          OFFSET 0.000000 -18.994300 0.000000
         }
        }
       }
      }
     }
     JOINT LeftCollar
     {
      OFFSET 3.157200 10.367500 0.000000
      CHANNELS 3 Yrotation Xrotation Zrotation
      JOINT LeftShoulder
      {
       OFFSET 14.482500 0.000000 0.000000
       CHANNELS 3 Yrotation Xrotation Zrotation
       JOINT LeftElbow
       {
        OFFSET 0.000000 -31.707800 0.000000
        CHANNELS 3 Yrotation Xrotation Zrotation
        JOINT LeftWrist
        {
         OFFSET 0.000000 -25.659300 0.000000
         CHANNELS 3 Yrotation Xrotation Zrotation
         End Site
         {
          OFFSET 0.000000 -18.994300 0.000000
         }
        }
       }
      }
     }
    }
   }
  }
 }
 JOINT RightHip
 {
  OFFSET -8.365600 -0.032100 -0.003200
  CHANNELS 3 Yrotation Xrotation Zrotation
  JOINT RightKnee
  {
   OFFSET 0.000000 -43.980000 0.003100
   CHANNELS 3 Yrotation Xrotation Zrotation
   JOINT RightAnkle
   {
    OFFSET 0.000000 -42.882800 0.005200
    CHANNELS 3 Yrotation Xrotation Zrotation
    JOINT RightToe
    {
     OFFSET 0.000000 -4.915500 10.826300
     CHANNELS 3 Yrotation Xrotation Zrotation
     End Site
     {
      OFFSET 0.000000 -1.517500 6.175900
     }
    }
   }
  }
 }
 JOINT LeftHip
 {
  OFFSET 8.365600 -0.032100 -0.003200
  CHANNELS 3 Yrotation Xrotation Zrotation
  JOINT LeftKnee
  {
   OFFSET 0.000000 -43.980000 0.003100
   CHANNELS 3 Yrotation Xrotation Zrotation
   JOINT LeftAnkle
   {
    OFFSET 0.000000 -42.882800 0.005200
    CHANNELS 3 Yrotation Xrotation Zrotation
    JOINT LeftToe
    {
     OFFSET 0.000000 -4.915500 10.826300
     CHANNELS 3 Yrotation Xrotation Zrotation
     End Site
     {
      OFFSET 0.000000 -1.517500 6.175900
     }
    }
   }
  }
 }
}
MOTION
Frames: 16
Frame Time: 0.008333
0.000000 91.618600 0.000000 0.000000 -5.767877 0.000000 0.000000 11.653817 0.000000 0.000000 -5.885947 0.000000 0.000000 -0.000000 0.000000 0.000000 -0.000000 0.000000 0.000000 12.528835 0.000000 0.000000 0.711642 0.000000 0.000000 -0.000000 0.000000 0.000000 0.000000 -90.000000 0.000000 -2.309062 0.000000 0.000000 2.309062 0.000000 0.000000 -0.000000 0.000000 0.000000 -0.000000 90.000000 0.000000 -2.309062 0.000000 0.000000 2.309062 0.000000 0.000000 8.520406 0.000000 0.000000 1.905762 0.000000 -0.000000 -4.658285 0.000000 0.000000 -0.000000 0.000000 0.000000 8.520406 0.000000 0.000000 1.905762 0.000000 -0.000000 -4.658285 0.000000 0.000000 -0.000000 0.000000
-10.929929 147.137008 13.172565 170.682602 -17.349228 -6.400073 0.637634 11.023590 3.897458 0.049063 0.775632 0.287383 0.026274 1.331611 0.468465 0.476950 10.095108 3.603955 -2.480738 21.211353 -1.759954 -2.083874 -3.199525 -1.305822 3.783936 5.208474 -3.682041 18.136276 -15.888004 -9.223172 57.117706 -41.186408 -42.025743 -3.610994 -7.323199 -22.006811 -2.897612 7.113236 0.303115 -5.917605 -13.485480 0.841952 -60.784935 -41.339077 53.666017 -11.784731 -3.143274 13.526867 6.693262 -61.999925 4.403964 -139.281445 78.478519 -132.878941 0.016925 -20.290861 2.505504 0.009365 -0.083943 -0.010148 -18.860143 -58.266019 23.592472 150.371928 75.026700 146.226668 -0.645948 -24.784035 -1.860591 0.000394 0.066115 0.033160
-9.235976 140.538349 12.907677 170.787238 -17.337779 -6.414808 0.570314 11.019729 3.902485 0.065124 0.771495 0.293151 0.009271 1.329621 0.461778 0.516878 10.059346 3.622219 -2.478642 21.213236 -1.750266 -2.088044 -3.202492 -1.295981 3.751116 5.233450 -3.694951 18.072316 -15.863015 -9.210486 57.036093 -41.342267 -42.025853 -3.676951 -7.166802 -21.720116 -2.936613 7.142338 0.291588 -5.941650 -13.483455 0.832088 -60.794015 -41.328279 53.705908 -11.797668 -3.151685 13.476458 6.612856 -62.001916 4.356615 -139.548288 78.454106 -133.093176 -0.001423 -20.360624 2.456448 0.041287 -0.048382 0.018733 -18.936365 -58.263697 23.592364 150.338999 75.033347 146.165520 -0.672329 -24.760458 -1.843656 -0.011045 0.044654 -0.005019
-7.843562 135.102691 12.691728 170.860119 -17.306072 -6.406826 0.612147 10.981871 3.940405 -0.037272 0.776004 0.254357 0.078589 1.312434 0.485445 0.499066 10.034097 3.622821 -2.474034 21.214661 -1.740041 -2.092777 -3.209640 -1.287508 3.690870 5.268572 -3.708089 18.020117 -15.816339 -9.201858 56.996635 -41.533369 -42.061286 -3.748419 -6.996756 -21.406461 -2.933259 7.165183 0.291122 -5.857268 -13.516883 0.773253 -60.910827 -41.286705 53.775850 -11.864983 -3.146698 13.339566 6.554566 -62.024913 4.299335 -139.748394 78.457295 -133.288669 0.008523 -20.401601 2.439485 0.033017 -0.026037 0.014985 -18.976927 -58.286732 23.583366 150.313262 75.045094 146.109100 -0.688225 -24.737814 -1.827443 -0.021729 0.032890 -0.009871
-6.842978 131.175612 12.535674 170.942378 -17.264637 -6.377464 0.601392 10.938190 3.930215 -0.045009 0.774220 0.251282 0.086226 1.299618 0.487601 0.479992 10.009057 3.623522 -2.466536 21.213343 -1.729439 -2.097288 -3.216625 -1.281969 3.681197 5.288410 -3.714542 17.951352 -15.747682 -9.203114 56.927032 -41.741346 -42.088856 -3.828164 -6.803447 -21.055186 -2.868909 7.167811 0.297427 -5.895513 -13.515131 0.736817 -60.980936 -41.253192 53.868471 -11.996351 -3.100126 13.124551 6.496200 -62.051831 4.217767 -139.954621 78.466177 -133.511498 0.020014 -20.438134 2.422880 0.020831 -0.009464 0.009457 -18.993447 -58.327365 23.564805 150.280443 75.050145 146.013960 -0.776731 -24.719410 -1.763501 -0.050466 0.020776 -0.022921
-6.204928 128.695162 12.439128 171.043952 -17.216111 -6.403784 0.558756 10.890028 3.958745 -0.001770 0.762364 0.266981 0.042404 1.300058 0.471891 0.479405 9.981295 3.630046 -2.459594 21.209846 -1.722725 -2.100618 -3.225600 -1.277928 3.679487 5.306450 -3.719972 17.876806 -15.682511 -9.218832 56.847755 -41.973523 -42.094763 -3.917283 -6.574073 -20.653814 -2.845838 7.179045 0.294225 -5.937344 -13.509540 0.716244 -61.031323 -41.220476 53.964405 -12.093016 -3.044671 12.928102 6.375066 -62.089215 4.220536 -140.096934 78.465433 -133.652899 0.027317 -20.464836 2.409331 0.008582 -0.002998 0.003896 -19.118585 -58.352835 23.669757 150.482908 75.092429 146.185428 -0.861815 -24.707184 -1.732251 -0.007635 0.012002 -0.003467
-5.854579 127.331032 12.382764 171.095095 -17.193856 -6.405394 0.560538 10.861896 3.977011 0.014129 0.755811 0.271966 0.026357 1.296148 0.466602 0.479657 9.955459 3.636201 -2.454834 21.202476 -1.719046 -2.103291 -3.237489 -1.275668 3.669646 5.321059 -3.723402 17.772734 -15.573543 -9.270447 56.814714 -42.285788 -42.118424 -4.008750 -6.306758 -20.191127 -2.874844 7.206065 0.281343 -5.954259 -13.508127 0.708164 -61.076036 -41.195089 54.082617 -12.175287 -2.987941 12.730627 6.337782 -62.104682 4.197532 -140.205568 78.462802 -133.757451 0.023542 -20.481933 2.403404 0.007372 -0.000939 0.003347 -19.173554 -58.360272 23.728624 150.631005 75.123330 146.301690 -0.895223 -24.703198 -1.706524 0.002784 0.010091 0.001264
-5.691760 126.680304 12.354792 171.141712 -17.167210 -6.384134 0.556559 10.829652 3.971339 -0.009867 0.757481 0.262045 0.026479 1.293068 0.466474 0.507088 9.923090 3.650419 -2.449710 21.191260 -1.716688 -2.105878 -3.253363 -1.272402 3.708485 5.314307 -3.722321 17.632921 -15.475469 -9.294195 56.763862 -42.578828 -42.121336 -4.094788 -6.008570 -19.667067 -2.858028 7.212749 0.279706 -6.017530 -13.487638 0.693156 -61.123963 -41.171315 54.204582 -12.262285 -2.926170 12.526908 6.349442 -62.123198 4.126020 -140.293579 78.458258 -133.846214 0.020998 -20.499038 2.401398 0.007041 0.001247 0.003197 -19.197884 -58.377800 23.754041 150.660483 75.138630 146.251794 -0.925957 -24.695404 -1.647453 -0.009007 0.008895 -0.004090
-5.626839 126.413253 12.342202 171.185344 -17.141103 -6.367005 0.553558 10.798823 3.968280 -0.031799 0.758290 0.254114 0.026689 1.290165 0.466382 0.506080 9.911458 3.651657 -2.371281 21.120941 -1.691112 -2.149102 -3.232837 -1.268798 3.733226 5.302902 -3.722287 17.523455 -15.392057 -9.324357 56.727768 -42.898136 -42.129087 -4.173051 -5.686692 -19.083873 -2.827741 7.205065 0.286355 -6.054188 -13.478095 0.673988 -61.186496 -41.142659 54.319656 -12.346815 -2.862121 12.326056 6.356699 -62.138441 4.061456 -140.356606 78.457212 -133.911487 0.022190 -20.512213 2.401624 0.004259 0.003862 0.001934 -19.224564 -58.396509 23.772217 150.729470 75.158372 146.281207 -1.001692 -24.692316 -1.601865 -0.017693 0.007530 -0.008034
-5.604181 126.319519 12.337385 171.226749 -17.112935 -6.363730 0.552950 10.766552 3.978541 -0.030615 0.754280 0.253202 0.070756 1.268571 0.482605 0.465746 9.892929 3.644989 -2.368920 21.100099 -1.687741 -2.161279 -3.239210 -1.265858 3.688096 5.340547 -3.732695 17.439559 -15.332367 -9.363121 56.702473 -43.238985 -42.137075 -4.239058 -5.355013 -18.446389 -2.845447 7.222089 0.283310 -6.000458 -13.466647 0.657412 -61.289615 -41.141015 54.357715 -12.448789 -2.798314 12.173055 6.334457 -62.158534 4.037807 -140.363128 78.453318 -133.924100 0.030827 -20.516788 2.395686 0.004647 0.004609 0.002110 -19.279015 -58.413782 23.830203 150.823352 75.180229 146.329680 -1.001673 -24.684745 -1.592398 -0.015277 0.006268 -0.006937
-5.598715 126.291352 12.334488 171.269550 -17.088280 -6.359627 0.548709 10.739488 3.985479 0.013512 0.741305 0.270714 0.025389 1.271929 0.464735 0.472670 9.859807 3.653729 -2.382987 21.090745 -1.689974 -2.162802 -3.260571 -1.263372 3.686693 5.352843 -3.744354 17.303232 -15.255851 -9.390585 56.673744 -43.597358 -42.130636 -4.289106 -5.036443 -17.768220 -2.852892 7.232189 0.286531 -5.990674 -13.439907 0.651329 -61.417108 -41.140167 54.504742 -12.506284 -2.723442 11.936383 6.311927 -62.174370 4.011994 -140.420726 78.448900 -133.993226 0.029965 -20.531766 2.399098 0.001388 0.004958 0.000630 -19.333023 -58.427312 23.895128 150.988872 75.210950 146.465612 -1.078153 -24.680941 -1.571855 -0.010214 0.003870 -0.004638
-5.598072 126.284195 12.330732 171.305308 -17.074267 -6.355732 0.541335 10.725139 3.987182 0.022777 0.737358 0.274127 0.005328 1.271719 0.457838 0.470769 9.848452 3.655482 -2.364797 21.056967 -1.682862 -2.166182 -3.282224 -1.261432 3.706960 5.345878 -3.750658 17.171959 -15.195371 -9.421540 56.631281 -43.969485 -42.109336 -4.324613 -4.745021 -17.059939 -2.855277 7.236950 0.289859 -5.973114 -13.431522 0.667142 -61.523611 -41.160467 54.645906 -12.559259 -2.646463 11.669919 6.300820 -62.182954 3.992599 -140.511158 78.434423 -134.108216 0.019703 -20.554841 2.425808 -0.007864 0.004089 -0.003571 -19.370583 -58.433460 23.933286 151.092013 75.231759 146.539290 -1.029437 -24.671636 -1.596922 -0.000344 0.001589 -0.000156
-5.597071 126.282501 12.327178 171.316665 -17.064073 -6.355124 0.538980 10.714984 3.988310 0.051251 0.731762 0.284885 -0.013511 1.272130 0.450398 0.468726 9.837278 3.658193 -2.350197 21.023457 -1.677616 -2.168565 -3.303499 -1.260996 3.722568 5.338825 -3.762107 17.046526 -15.142693 -9.449023 56.573240 -44.350561 -42.091180 -4.348424 -4.470372 -16.320010 -2.858409 7.242824 0.293956 -5.988479 -13.423996 0.692723 -61.563442 -41.193850 54.720058 -12.613710 -2.578536 11.411797 6.326718 -62.196610 3.980452 -140.493407 78.414552 -134.094425 0.008796 -20.563020 2.438502 -0.005299 0.001815 -0.002406 -19.401384 -58.433303 23.992614 151.175953 75.246378 146.583839 -1.020945 -24.665802 -1.588035 -0.002056 -0.000985 -0.000933
-5.601892 126.280468 12.325029 171.358099 -17.035624 -6.334815 0.528778 10.686397 3.976885 0.049599 0.726844 0.284048 0.022557 1.255309 0.462923 0.426461 9.828495 3.649656 -2.359733 21.003528 -1.680842 -2.168222 -3.324523 -1.261897 3.701036 5.343661 -3.788132 16.947963 -15.096844 -9.468573 56.505548 -44.736631 -42.100400 -4.366975 -4.182898 -15.530553 -2.837934 7.260255 0.317901 -6.074346 -13.415049 0.706072 -61.581760 -41.272462 54.836783 -12.665172 -2.492638 11.052325 6.372729 -62.222677 3.904696 -140.513361 78.393357 -134.129557 -0.001865 -20.578095 2.457194 -0.006074 0.000924 -0.002758 -19.432764 -58.455314 24.016818 151.218607 75.262974 146.562136 -1.051120 -24.654478 -1.534888 -0.013964 -0.001686 -0.006340
-5.608904 126.278001 12.323239 171.442139 -16.996049 -6.316261 0.475816 10.649042 3.954936 0.042049 0.723509 0.281584 0.020964 1.249610 0.461861 0.419118 9.808463 3.651657 -2.363812 20.983996 -1.684754 -2.165697 -3.344850 -1.263997 3.685746 5.357191 -3.817437 16.863331 -15.067773 -9.491351 56.431339 -45.128370 -42.151081 -4.390537 -3.849081 -14.658083 -2.817818 7.308611 0.341178 -6.183153 -13.428790 0.732616 -61.573550 -41.420223 55.013809 -12.724522 -2.395786 10.516977 6.404285 -62.252809 3.805418 -140.526570 78.367182 -134.164512 -0.015198 -20.596658 2.488730 -0.006591 -0.000282 -0.002993 -19.482707 -58.492402 23.991975 151.256981 75.277638 146.578964 -1.057712 -24.647234 -1.532959 -0.014786 0.000712 -0.006714
-5.610019 126.276512 12.320352 171.473233 -16.970930 -6.314703 0.474348 10.620748 3.963066 0.034840 0.720169 0.278234 0.014699 1.246923 0.459838 0.428926 9.756365 3.659467 -2.378678 20.991829 -1.693243 -2.174174 -3.327996 -1.263991 3.642531 5.405408 -3.845938 16.811158 -15.054477 -9.527672 56.348177 -45.533410 -42.241950 -4.423739 -3.442439 -13.662870 -2.815444 7.415587 0.366484 -6.319164 -13.461278 0.766046 -61.495241 -41.638923 55.209703 -12.810893 -2.327693 9.764373 6.422785 -62.275577 3.774042 -140.501795 78.350886 -134.143943 -0.021965 -20.604767 2.496284 -0.002227 -0.000670 -0.001011 -19.530621 -58.509352 24.022810 151.301323 75.290711 146.597262 -1.001035 -24.638513 -1.556996 -0.013910 0.001198 -0.006316
